<svg width="113" height="32" viewBox="0 0 113 32" fill="none" xmlns="http://www.w3.org/2000/svg">
<path d="M70.32 17.09C69.552 17.09 68.814 16.982 68.106 16.766C67.41 16.538 66.864 16.256 66.468 15.92L67.044 14.912C67.44 15.224 67.938 15.482 68.538 15.686C69.138 15.878 69.762 15.974 70.41 15.974C71.274 15.974 71.91 15.842 72.318 15.578C72.738 15.302 72.948 14.918 72.948 14.426C72.948 14.078 72.834 13.808 72.606 13.616C72.378 13.412 72.09 13.262 71.742 13.166C71.394 13.058 70.932 12.956 70.356 12.86C69.588 12.716 68.97 12.572 68.502 12.428C68.034 12.272 67.632 12.014 67.296 11.654C66.972 11.294 66.81 10.796 66.81 10.16C66.81 9.368 67.14 8.72 67.8 8.216C68.46 7.712 69.378 7.46 70.554 7.46C71.166 7.46 71.778 7.544 72.39 7.712C73.002 7.868 73.506 8.078 73.902 8.342L73.344 9.368C72.564 8.828 71.634 8.558 70.554 8.558C69.738 8.558 69.12 8.702 68.7 8.99C68.292 9.278 68.088 9.656 68.088 10.124C68.088 10.484 68.202 10.772 68.43 10.988C68.67 11.204 68.964 11.366 69.312 11.474C69.66 11.57 70.14 11.672 70.752 11.78C71.508 11.924 72.114 12.068 72.57 12.212C73.026 12.356 73.416 12.602 73.74 12.95C74.064 13.298 74.226 13.778 74.226 14.39C74.226 15.218 73.878 15.878 73.182 16.37C72.498 16.85 71.544 17.09 70.32 17.09ZM80.5126 17.09C79.5766 17.09 78.7366 16.886 77.9926 16.478C77.2606 16.07 76.6846 15.5 76.2646 14.768C75.8446 14.024 75.6346 13.19 75.6346 12.266C75.6346 11.342 75.8446 10.514 76.2646 9.782C76.6846 9.05 77.2606 8.48 77.9926 8.072C78.7366 7.664 79.5766 7.46 80.5126 7.46C81.3286 7.46 82.0546 7.622 82.6906 7.946C83.3386 8.258 83.8486 8.72 84.2206 9.332L83.2666 9.98C82.9546 9.512 82.5586 9.164 82.0786 8.936C81.5986 8.696 81.0766 8.576 80.5126 8.576C79.8286 8.576 79.2106 8.732 78.6586 9.044C78.1186 9.344 77.6926 9.776 77.3806 10.34C77.0806 10.904 76.9306 11.546 76.9306 12.266C76.9306 12.998 77.0806 13.646 77.3806 14.21C77.6926 14.762 78.1186 15.194 78.6586 15.506C79.2106 15.806 79.8286 15.956 80.5126 15.956C81.0766 15.956 81.5986 15.842 82.0786 15.614C82.5586 15.386 82.9546 15.038 83.2666 14.57L84.2206 15.218C83.8486 15.83 83.3386 16.298 82.6906 16.622C82.0426 16.934 81.3166 17.09 80.5126 17.09ZM87.9552 9.386C88.2552 8.75 88.6992 8.27 89.2872 7.946C89.8872 7.622 90.6252 7.46 91.5012 7.46V8.702L91.1952 8.684C90.1992 8.684 89.4192 8.99 88.8552 9.602C88.2912 10.214 88.0092 11.072 88.0092 12.176V17H86.7312V7.532H87.9552V9.386ZM97.5973 17.09C96.6853 17.09 95.8633 16.886 95.1313 16.478C94.3993 16.058 93.8233 15.482 93.4033 14.75C92.9833 14.018 92.7733 13.19 92.7733 12.266C92.7733 11.342 92.9833 10.514 93.4033 9.782C93.8233 9.05 94.3993 8.48 95.1313 8.072C95.8633 7.664 96.6853 7.46 97.5973 7.46C98.5093 7.46 99.3313 7.664 100.063 8.072C100.795 8.48 101.365 9.05 101.773 9.782C102.193 10.514 102.403 11.342 102.403 12.266C102.403 13.19 102.193 14.018 101.773 14.75C101.365 15.482 100.795 16.058 100.063 16.478C99.3313 16.886 98.5093 17.09 97.5973 17.09ZM97.5973 15.956C98.2693 15.956 98.8693 15.806 99.3973 15.506C99.9373 15.194 100.357 14.756 100.657 14.192C100.957 13.628 101.107 12.986 101.107 12.266C101.107 11.546 100.957 10.904 100.657 10.34C100.357 9.776 99.9373 9.344 99.3973 9.044C98.8693 8.732 98.2693 8.576 97.5973 8.576C96.9253 8.576 96.3193 8.732 95.7793 9.044C95.2513 9.344 94.8313 9.776 94.5193 10.34C94.2193 10.904 94.0693 11.546 94.0693 12.266C94.0693 12.986 94.2193 13.628 94.5193 14.192C94.8313 14.756 95.2513 15.194 95.7793 15.506C96.3193 15.806 96.9253 15.956 97.5973 15.956ZM105.012 3.644H106.29V17H105.012V3.644ZM109.846 3.644H111.124V17H109.846V3.644Z" fill="white"/>
<path d="M0.646447 27.6464C0.451184 27.8417 0.451184 28.1583 0.646447 28.3536L3.82843 31.5355C4.02369 31.7308 4.34027 31.7308 4.53553 31.5355C4.7308 31.3403 4.7308 31.0237 4.53553 30.8284L1.70711 28L4.53553 25.1716C4.7308 24.9763 4.7308 24.6597 4.53553 24.4645C4.34027 24.2692 4.02369 24.2692 3.82843 24.4645L0.646447 27.6464ZM1 28.5H113V27.5H1V28.5Z" fill="white"/>
</svg>
