<svg width="229" height="70" viewBox="0 0 229 70" fill="none" xmlns="http://www.w3.org/2000/svg">
<rect width="229" height="70" fill="#080808"/>
<path d="M30.32 21V35H28.18L20.46 25.52V35H17.88V21H20.02L27.74 30.48V21H30.32ZM36.6714 23.18V27.44H43.4314V29.64H36.6714V35H34.0714V21H44.2914V23.18H36.6714ZM49.7434 23.2H45.1034V21H56.9834V23.2H52.3434V35H49.7434V23.2ZM77.322 35L77.302 25.72L72.702 33.4H71.542L66.942 25.84V35H64.462V21H66.602L72.162 30.28L77.622 21H79.762L79.782 35H77.322ZM94.0636 32.82V35H83.5636V21H93.7836V23.18H86.1636V26.82H92.9236V28.96H86.1636V32.82H94.0636ZM99.802 23.2H95.162V21H107.042V23.2H102.402V35H99.802V23.2ZM108.993 21H111.593V35H108.993V21ZM121.86 35.2C120.447 35.2 119.167 34.8933 118.02 34.28C116.887 33.6533 115.993 32.7933 115.34 31.7C114.7 30.6067 114.38 29.3733 114.38 28C114.38 26.6267 114.707 25.3933 115.36 24.3C116.013 23.2067 116.907 22.3533 118.04 21.74C119.187 21.1133 120.467 20.8 121.88 20.8C123.027 20.8 124.073 21 125.02 21.4C125.967 21.8 126.767 22.38 127.42 23.14L125.74 24.72C124.727 23.6267 123.48 23.08 122 23.08C121.04 23.08 120.18 23.2933 119.42 23.72C118.66 24.1333 118.067 24.7133 117.64 25.46C117.213 26.2067 117 27.0533 117 28C117 28.9467 117.213 29.7933 117.64 30.54C118.067 31.2867 118.66 31.8733 119.42 32.3C120.18 32.7133 121.04 32.92 122 32.92C123.48 32.92 124.727 32.3667 125.74 31.26L127.42 32.86C126.767 33.62 125.96 34.2 125 34.6C124.053 35 123.007 35.2 121.86 35.2ZM134.173 35.2C133.093 35.2 132.046 35.0467 131.033 34.74C130.033 34.4333 129.24 34.0267 128.653 33.52L129.553 31.5C130.126 31.9533 130.826 32.3267 131.653 32.62C132.493 32.9 133.333 33.04 134.173 33.04C135.213 33.04 135.986 32.8733 136.493 32.54C137.013 32.2067 137.273 31.7667 137.273 31.22C137.273 30.82 137.126 30.4933 136.833 30.24C136.553 29.9733 136.193 29.7667 135.753 29.62C135.313 29.4733 134.713 29.3067 133.953 29.12C132.886 28.8667 132.02 28.6133 131.353 28.36C130.7 28.1067 130.133 27.7133 129.653 27.18C129.186 26.6333 128.953 25.9 128.953 24.98C128.953 24.2067 129.16 23.5067 129.573 22.88C130 22.24 130.633 21.7333 131.473 21.36C132.326 20.9867 133.366 20.8 134.593 20.8C135.446 20.8 136.286 20.9067 137.113 21.12C137.94 21.3333 138.653 21.64 139.253 22.04L138.433 24.06C137.82 23.7 137.18 23.4267 136.513 23.24C135.846 23.0533 135.2 22.96 134.573 22.96C133.546 22.96 132.78 23.1333 132.273 23.48C131.78 23.8267 131.533 24.2867 131.533 24.86C131.533 25.26 131.673 25.5867 131.953 25.84C132.246 26.0933 132.613 26.2933 133.053 26.44C133.493 26.5867 134.093 26.7533 134.853 26.94C135.893 27.18 136.746 27.4333 137.413 27.7C138.08 27.9533 138.646 28.3467 139.113 28.88C139.593 29.4133 139.833 30.1333 139.833 31.04C139.833 31.8133 139.62 32.5133 139.193 33.14C138.78 33.7667 138.146 34.2667 137.293 34.64C136.44 35.0133 135.4 35.2 134.173 35.2Z" fill="white"/>
<path d="M19.36 54.07C18.7627 54.07 18.1887 53.986 17.638 53.818C17.0967 53.6407 16.672 53.4213 16.364 53.16L16.812 52.376C17.12 52.6187 17.5073 52.8193 17.974 52.978C18.4407 53.1273 18.926 53.202 19.43 53.202C20.102 53.202 20.5967 53.0993 20.914 52.894C21.2407 52.6793 21.404 52.3807 21.404 51.998C21.404 51.7273 21.3153 51.5173 21.138 51.368C20.9607 51.2093 20.7367 51.0927 20.466 51.018C20.1953 50.934 19.836 50.8547 19.388 50.78C18.7907 50.668 18.31 50.556 17.946 50.444C17.582 50.3227 17.2693 50.122 17.008 49.842C16.756 49.562 16.63 49.1747 16.63 48.68C16.63 48.064 16.8867 47.56 17.4 47.168C17.9133 46.776 18.6273 46.58 19.542 46.58C20.018 46.58 20.494 46.6453 20.97 46.776C21.446 46.8973 21.838 47.0607 22.146 47.266L21.712 48.064C21.1053 47.644 20.382 47.434 19.542 47.434C18.9073 47.434 18.4267 47.546 18.1 47.77C17.7827 47.994 17.624 48.288 17.624 48.652C17.624 48.932 17.7127 49.156 17.89 49.324C18.0767 49.492 18.3053 49.618 18.576 49.702C18.8467 49.7767 19.22 49.856 19.696 49.94C20.284 50.052 20.7553 50.164 21.11 50.276C21.4647 50.388 21.768 50.5793 22.02 50.85C22.272 51.1207 22.398 51.494 22.398 51.97C22.398 52.614 22.1273 53.1273 21.586 53.51C21.054 53.8833 20.312 54.07 19.36 54.07ZM30.6476 50.626H24.4876C24.5436 51.3913 24.8376 52.012 25.3696 52.488C25.9016 52.9547 26.5736 53.188 27.3856 53.188C27.8429 53.188 28.2629 53.1087 28.6456 52.95C29.0283 52.782 29.3596 52.5393 29.6396 52.222L30.1996 52.866C29.8729 53.258 29.4623 53.5567 28.9676 53.762C28.4823 53.9673 27.9456 54.07 27.3576 54.07C26.6016 54.07 25.9296 53.9113 25.3416 53.594C24.7629 53.2673 24.3103 52.8193 23.9836 52.25C23.6569 51.6807 23.4936 51.0367 23.4936 50.318C23.4936 49.5993 23.6476 48.9553 23.9556 48.386C24.2729 47.8167 24.7023 47.3733 25.2436 47.056C25.7943 46.7387 26.4103 46.58 27.0916 46.58C27.7729 46.58 28.3843 46.7387 28.9256 47.056C29.4669 47.3733 29.8916 47.8167 30.1996 48.386C30.5076 48.946 30.6616 49.59 30.6616 50.318L30.6476 50.626ZM27.0916 47.434C26.3823 47.434 25.7849 47.6627 25.2996 48.12C24.8236 48.568 24.5529 49.156 24.4876 49.884H29.7096C29.6443 49.156 29.3689 48.568 28.8836 48.12C28.4076 47.6627 27.8103 47.434 27.0916 47.434ZM39.0968 50.626H32.9368C32.9928 51.3913 33.2868 52.012 33.8188 52.488C34.3508 52.9547 35.0228 53.188 35.8348 53.188C36.2922 53.188 36.7122 53.1087 37.0948 52.95C37.4775 52.782 37.8088 52.5393 38.0888 52.222L38.6488 52.866C38.3222 53.258 37.9115 53.5567 37.4168 53.762C36.9315 53.9673 36.3948 54.07 35.8068 54.07C35.0508 54.07 34.3788 53.9113 33.7908 53.594C33.2122 53.2673 32.7595 52.8193 32.4328 52.25C32.1062 51.6807 31.9428 51.0367 31.9428 50.318C31.9428 49.5993 32.0968 48.9553 32.4048 48.386C32.7222 47.8167 33.1515 47.3733 33.6928 47.056C34.2435 46.7387 34.8595 46.58 35.5408 46.58C36.2222 46.58 36.8335 46.7387 37.3748 47.056C37.9162 47.3733 38.3408 47.8167 38.6488 48.386C38.9568 48.946 39.1108 49.59 39.1108 50.318L39.0968 50.626ZM35.5408 47.434C34.8315 47.434 34.2342 47.6627 33.7488 48.12C33.2728 48.568 33.0022 49.156 32.9368 49.884H38.1588C38.0935 49.156 37.8182 48.568 37.3328 48.12C36.8568 47.6627 36.2595 47.434 35.5408 47.434ZM53.9821 46.58C54.9061 46.58 55.6294 46.846 56.1521 47.378C56.6841 47.91 56.9501 48.694 56.9501 49.73V54H55.9561V49.828C55.9561 49.0627 55.7694 48.4793 55.3961 48.078C55.0321 47.6767 54.5141 47.476 53.8421 47.476C53.0768 47.476 52.4748 47.714 52.0361 48.19C51.5974 48.6567 51.3781 49.3053 51.3781 50.136V54H50.3841V49.828C50.3841 49.0627 50.1974 48.4793 49.8241 48.078C49.4601 47.6767 48.9374 47.476 48.2561 47.476C47.5001 47.476 46.8981 47.714 46.4501 48.19C46.0114 48.6567 45.7921 49.3053 45.7921 50.136V54H44.7981V46.636H45.7501V47.98C46.0114 47.532 46.3754 47.1867 46.8421 46.944C47.3088 46.7013 47.8454 46.58 48.4521 46.58C49.0681 46.58 49.6001 46.7107 50.0481 46.972C50.5054 47.2333 50.8461 47.6207 51.0701 48.134C51.3408 47.6487 51.7281 47.2707 52.2321 47C52.7454 46.72 53.3288 46.58 53.9821 46.58ZM62.6831 54.07C61.9738 54.07 61.3344 53.9113 60.7651 53.594C60.1958 53.2673 59.7478 52.8193 59.4211 52.25C59.0944 51.6807 58.9311 51.0367 58.9311 50.318C58.9311 49.5993 59.0944 48.9553 59.4211 48.386C59.7478 47.8167 60.1958 47.3733 60.7651 47.056C61.3344 46.7387 61.9738 46.58 62.6831 46.58C63.3924 46.58 64.0318 46.7387 64.6011 47.056C65.1704 47.3733 65.6138 47.8167 65.9311 48.386C66.2578 48.9553 66.4211 49.5993 66.4211 50.318C66.4211 51.0367 66.2578 51.6807 65.9311 52.25C65.6138 52.8193 65.1704 53.2673 64.6011 53.594C64.0318 53.9113 63.3924 54.07 62.6831 54.07ZM62.6831 53.188C63.2058 53.188 63.6724 53.0713 64.0831 52.838C64.5031 52.5953 64.8298 52.2547 65.0631 51.816C65.2964 51.3773 65.4131 50.878 65.4131 50.318C65.4131 49.758 65.2964 49.2587 65.0631 48.82C64.8298 48.3813 64.5031 48.0453 64.0831 47.812C63.6724 47.5693 63.2058 47.448 62.6831 47.448C62.1604 47.448 61.6891 47.5693 61.2691 47.812C60.8584 48.0453 60.5318 48.3813 60.2891 48.82C60.0558 49.2587 59.9391 49.758 59.9391 50.318C59.9391 50.878 60.0558 51.3773 60.2891 51.816C60.5318 52.2547 60.8584 52.5953 61.2691 52.838C61.6891 53.0713 62.1604 53.188 62.6831 53.188ZM69.4025 48.078C69.6358 47.5833 69.9811 47.21 70.4385 46.958C70.9051 46.706 71.4791 46.58 72.1605 46.58V47.546L71.9225 47.532C71.1478 47.532 70.5411 47.77 70.1025 48.246C69.6638 48.722 69.4445 49.3893 69.4445 50.248V54H68.4505V46.636H69.4025V48.078ZM80.3039 50.626H74.1439C74.1999 51.3913 74.4939 52.012 75.0259 52.488C75.5579 52.9547 76.2299 53.188 77.0419 53.188C77.4992 53.188 77.9192 53.1087 78.3019 52.95C78.6845 52.782 79.0159 52.5393 79.2959 52.222L79.8559 52.866C79.5292 53.258 79.1185 53.5567 78.6239 53.762C78.1385 53.9673 77.6019 54.07 77.0139 54.07C76.2579 54.07 75.5859 53.9113 74.9979 53.594C74.4192 53.2673 73.9665 52.8193 73.6399 52.25C73.3132 51.6807 73.1499 51.0367 73.1499 50.318C73.1499 49.5993 73.3039 48.9553 73.6119 48.386C73.9292 47.8167 74.3585 47.3733 74.8999 47.056C75.4505 46.7387 76.0665 46.58 76.7479 46.58C77.4292 46.58 78.0405 46.7387 78.5819 47.056C79.1232 47.3733 79.5479 47.8167 79.8559 48.386C80.1639 48.946 80.3179 49.59 80.3179 50.318L80.3039 50.626ZM76.7479 47.434C76.0385 47.434 75.4412 47.6627 74.9559 48.12C74.4799 48.568 74.2092 49.156 74.1439 49.884H79.3659C79.3005 49.156 79.0252 48.568 78.5399 48.12C78.0639 47.6627 77.4665 47.434 76.7479 47.434Z" fill="white"/>
</svg>
