<svg width="229" height="70" viewBox="0 0 229 70" fill="none" xmlns="http://www.w3.org/2000/svg">
<rect width="229" height="70" fill="#4F4936"/>
<path d="M38.34 21L33.7 35H30.94L27.48 24.64L23.96 35H21.18L16.54 21H19.24L22.72 31.64L26.34 21H28.74L32.28 31.7L35.86 21H38.34ZM50.9581 32.82V35H40.4581V21H50.6781V23.18H43.0581V26.82H49.8181V28.96H43.0581V32.82H50.9581ZM63.7766 27.72C64.5499 27.9733 65.1632 28.4 65.6166 29C66.0699 29.5867 66.2966 30.32 66.2966 31.2C66.2966 32.4133 65.8299 33.3533 64.8966 34.02C63.9632 34.6733 62.6032 35 60.8166 35H53.8566V21H60.4166C62.0699 21 63.3432 21.3267 64.2366 21.98C65.1299 22.62 65.5766 23.5067 65.5766 24.64C65.5766 25.3333 65.4166 25.9467 65.0966 26.48C64.7766 27.0133 64.3366 27.4267 63.7766 27.72ZM56.4566 23.04V26.9H60.1366C61.0432 26.9 61.7366 26.74 62.2166 26.42C62.7099 26.0867 62.9566 25.6067 62.9566 24.98C62.9566 24.34 62.7099 23.86 62.2166 23.54C61.7366 23.2067 61.0432 23.04 60.1366 23.04H56.4566ZM60.6566 32.96C62.6699 32.96 63.6766 32.2867 63.6766 30.94C63.6766 29.5933 62.6699 28.92 60.6566 28.92H56.4566V32.96H60.6566ZM87.4588 35L87.4388 25.72L82.8388 33.4H81.6788L77.0788 25.84V35H74.5988V21H76.7388L82.2988 30.28L87.7588 21H89.8988L89.9188 35H87.4588ZM104.2 32.82V35H93.7003V21H103.92V23.18H96.3003V26.82H103.06V28.96H96.3003V32.82H104.2ZM109.939 23.2H105.299V21H117.179V23.2H112.539V35H109.939V23.2ZM119.13 21H121.73V35H119.13V21ZM131.997 35.2C130.583 35.2 129.303 34.8933 128.157 34.28C127.023 33.6533 126.13 32.7933 125.477 31.7C124.837 30.6067 124.517 29.3733 124.517 28C124.517 26.6267 124.843 25.3933 125.497 24.3C126.15 23.2067 127.043 22.3533 128.177 21.74C129.323 21.1133 130.603 20.8 132.017 20.8C133.163 20.8 134.21 21 135.157 21.4C136.103 21.8 136.903 22.38 137.557 23.14L135.877 24.72C134.863 23.6267 133.617 23.08 132.137 23.08C131.177 23.08 130.317 23.2933 129.557 23.72C128.797 24.1333 128.203 24.7133 127.777 25.46C127.35 26.2067 127.137 27.0533 127.137 28C127.137 28.9467 127.35 29.7933 127.777 30.54C128.203 31.2867 128.797 31.8733 129.557 32.3C130.317 32.7133 131.177 32.92 132.137 32.92C133.617 32.92 134.863 32.3667 135.877 31.26L137.557 32.86C136.903 33.62 136.097 34.2 135.137 34.6C134.19 35 133.143 35.2 131.997 35.2ZM144.31 35.2C143.23 35.2 142.183 35.0467 141.17 34.74C140.17 34.4333 139.377 34.0267 138.79 33.52L139.69 31.5C140.263 31.9533 140.963 32.3267 141.79 32.62C142.63 32.9 143.47 33.04 144.31 33.04C145.35 33.04 146.123 32.8733 146.63 32.54C147.15 32.2067 147.41 31.7667 147.41 31.22C147.41 30.82 147.263 30.4933 146.97 30.24C146.69 29.9733 146.33 29.7667 145.89 29.62C145.45 29.4733 144.85 29.3067 144.09 29.12C143.023 28.8667 142.157 28.6133 141.49 28.36C140.837 28.1067 140.27 27.7133 139.79 27.18C139.323 26.6333 139.09 25.9 139.09 24.98C139.09 24.2067 139.297 23.5067 139.71 22.88C140.137 22.24 140.77 21.7333 141.61 21.36C142.463 20.9867 143.503 20.8 144.73 20.8C145.583 20.8 146.423 20.9067 147.25 21.12C148.077 21.3333 148.79 21.64 149.39 22.04L148.57 24.06C147.957 23.7 147.317 23.4267 146.65 23.24C145.983 23.0533 145.337 22.96 144.71 22.96C143.683 22.96 142.917 23.1333 142.41 23.48C141.917 23.8267 141.67 24.2867 141.67 24.86C141.67 25.26 141.81 25.5867 142.09 25.84C142.383 26.0933 142.75 26.2933 143.19 26.44C143.63 26.5867 144.23 26.7533 144.99 26.94C146.03 27.18 146.883 27.4333 147.55 27.7C148.217 27.9533 148.783 28.3467 149.25 28.88C149.73 29.4133 149.97 30.1333 149.97 31.04C149.97 31.8133 149.757 32.5133 149.33 33.14C148.917 33.7667 148.283 34.2667 147.43 34.64C146.577 35.0133 145.537 35.2 144.31 35.2Z" fill="white"/>
<path d="M19.36 54.07C18.7627 54.07 18.1887 53.986 17.638 53.818C17.0967 53.6407 16.672 53.4213 16.364 53.16L16.812 52.376C17.12 52.6187 17.5073 52.8193 17.974 52.978C18.4407 53.1273 18.926 53.202 19.43 53.202C20.102 53.202 20.5967 53.0993 20.914 52.894C21.2407 52.6793 21.404 52.3807 21.404 51.998C21.404 51.7273 21.3153 51.5173 21.138 51.368C20.9607 51.2093 20.7367 51.0927 20.466 51.018C20.1953 50.934 19.836 50.8547 19.388 50.78C18.7907 50.668 18.31 50.556 17.946 50.444C17.582 50.3227 17.2693 50.122 17.008 49.842C16.756 49.562 16.63 49.1747 16.63 48.68C16.63 48.064 16.8867 47.56 17.4 47.168C17.9133 46.776 18.6273 46.58 19.542 46.58C20.018 46.58 20.494 46.6453 20.97 46.776C21.446 46.8973 21.838 47.0607 22.146 47.266L21.712 48.064C21.1053 47.644 20.382 47.434 19.542 47.434C18.9073 47.434 18.4267 47.546 18.1 47.77C17.7827 47.994 17.624 48.288 17.624 48.652C17.624 48.932 17.7127 49.156 17.89 49.324C18.0767 49.492 18.3053 49.618 18.576 49.702C18.8467 49.7767 19.22 49.856 19.696 49.94C20.284 50.052 20.7553 50.164 21.11 50.276C21.4647 50.388 21.768 50.5793 22.02 50.85C22.272 51.1207 22.398 51.494 22.398 51.97C22.398 52.614 22.1273 53.1273 21.586 53.51C21.054 53.8833 20.312 54.07 19.36 54.07ZM30.6476 50.626H24.4876C24.5436 51.3913 24.8376 52.012 25.3696 52.488C25.9016 52.9547 26.5736 53.188 27.3856 53.188C27.8429 53.188 28.2629 53.1087 28.6456 52.95C29.0283 52.782 29.3596 52.5393 29.6396 52.222L30.1996 52.866C29.8729 53.258 29.4623 53.5567 28.9676 53.762C28.4823 53.9673 27.9456 54.07 27.3576 54.07C26.6016 54.07 25.9296 53.9113 25.3416 53.594C24.7629 53.2673 24.3103 52.8193 23.9836 52.25C23.6569 51.6807 23.4936 51.0367 23.4936 50.318C23.4936 49.5993 23.6476 48.9553 23.9556 48.386C24.2729 47.8167 24.7023 47.3733 25.2436 47.056C25.7943 46.7387 26.4103 46.58 27.0916 46.58C27.7729 46.58 28.3843 46.7387 28.9256 47.056C29.4669 47.3733 29.8916 47.8167 30.1996 48.386C30.5076 48.946 30.6616 49.59 30.6616 50.318L30.6476 50.626ZM27.0916 47.434C26.3823 47.434 25.7849 47.6627 25.2996 48.12C24.8236 48.568 24.5529 49.156 24.4876 49.884H29.7096C29.6443 49.156 29.3689 48.568 28.8836 48.12C28.4076 47.6627 27.8103 47.434 27.0916 47.434ZM39.0968 50.626H32.9368C32.9928 51.3913 33.2868 52.012 33.8188 52.488C34.3508 52.9547 35.0228 53.188 35.8348 53.188C36.2922 53.188 36.7122 53.1087 37.0948 52.95C37.4775 52.782 37.8088 52.5393 38.0888 52.222L38.6488 52.866C38.3222 53.258 37.9115 53.5567 37.4168 53.762C36.9315 53.9673 36.3948 54.07 35.8068 54.07C35.0508 54.07 34.3788 53.9113 33.7908 53.594C33.2122 53.2673 32.7595 52.8193 32.4328 52.25C32.1062 51.6807 31.9428 51.0367 31.9428 50.318C31.9428 49.5993 32.0968 48.9553 32.4048 48.386C32.7222 47.8167 33.1515 47.3733 33.6928 47.056C34.2435 46.7387 34.8595 46.58 35.5408 46.58C36.2222 46.58 36.8335 46.7387 37.3748 47.056C37.9162 47.3733 38.3408 47.8167 38.6488 48.386C38.9568 48.946 39.1108 49.59 39.1108 50.318L39.0968 50.626ZM35.5408 47.434C34.8315 47.434 34.2342 47.6627 33.7488 48.12C33.2728 48.568 33.0022 49.156 32.9368 49.884H38.1588C38.0935 49.156 37.8182 48.568 37.3328 48.12C36.8568 47.6627 36.2595 47.434 35.5408 47.434ZM53.9821 46.58C54.9061 46.58 55.6294 46.846 56.1521 47.378C56.6841 47.91 56.9501 48.694 56.9501 49.73V54H55.9561V49.828C55.9561 49.0627 55.7694 48.4793 55.3961 48.078C55.0321 47.6767 54.5141 47.476 53.8421 47.476C53.0768 47.476 52.4748 47.714 52.0361 48.19C51.5974 48.6567 51.3781 49.3053 51.3781 50.136V54H50.3841V49.828C50.3841 49.0627 50.1974 48.4793 49.8241 48.078C49.4601 47.6767 48.9374 47.476 48.2561 47.476C47.5001 47.476 46.8981 47.714 46.4501 48.19C46.0114 48.6567 45.7921 49.3053 45.7921 50.136V54H44.7981V46.636H45.7501V47.98C46.0114 47.532 46.3754 47.1867 46.8421 46.944C47.3088 46.7013 47.8454 46.58 48.4521 46.58C49.0681 46.58 49.6001 46.7107 50.0481 46.972C50.5054 47.2333 50.8461 47.6207 51.0701 48.134C51.3408 47.6487 51.7281 47.2707 52.2321 47C52.7454 46.72 53.3288 46.58 53.9821 46.58ZM62.6831 54.07C61.9738 54.07 61.3344 53.9113 60.7651 53.594C60.1958 53.2673 59.7478 52.8193 59.4211 52.25C59.0944 51.6807 58.9311 51.0367 58.9311 50.318C58.9311 49.5993 59.0944 48.9553 59.4211 48.386C59.7478 47.8167 60.1958 47.3733 60.7651 47.056C61.3344 46.7387 61.9738 46.58 62.6831 46.58C63.3924 46.58 64.0318 46.7387 64.6011 47.056C65.1704 47.3733 65.6138 47.8167 65.9311 48.386C66.2578 48.9553 66.4211 49.5993 66.4211 50.318C66.4211 51.0367 66.2578 51.6807 65.9311 52.25C65.6138 52.8193 65.1704 53.2673 64.6011 53.594C64.0318 53.9113 63.3924 54.07 62.6831 54.07ZM62.6831 53.188C63.2058 53.188 63.6724 53.0713 64.0831 52.838C64.5031 52.5953 64.8298 52.2547 65.0631 51.816C65.2964 51.3773 65.4131 50.878 65.4131 50.318C65.4131 49.758 65.2964 49.2587 65.0631 48.82C64.8298 48.3813 64.5031 48.0453 64.0831 47.812C63.6724 47.5693 63.2058 47.448 62.6831 47.448C62.1604 47.448 61.6891 47.5693 61.2691 47.812C60.8584 48.0453 60.5318 48.3813 60.2891 48.82C60.0558 49.2587 59.9391 49.758 59.9391 50.318C59.9391 50.878 60.0558 51.3773 60.2891 51.816C60.5318 52.2547 60.8584 52.5953 61.2691 52.838C61.6891 53.0713 62.1604 53.188 62.6831 53.188ZM69.4025 48.078C69.6358 47.5833 69.9811 47.21 70.4385 46.958C70.9051 46.706 71.4791 46.58 72.1605 46.58V47.546L71.9225 47.532C71.1478 47.532 70.5411 47.77 70.1025 48.246C69.6638 48.722 69.4445 49.3893 69.4445 50.248V54H68.4505V46.636H69.4025V48.078ZM80.3039 50.626H74.1439C74.1999 51.3913 74.4939 52.012 75.0259 52.488C75.5579 52.9547 76.2299 53.188 77.0419 53.188C77.4992 53.188 77.9192 53.1087 78.3019 52.95C78.6845 52.782 79.0159 52.5393 79.2959 52.222L79.8559 52.866C79.5292 53.258 79.1185 53.5567 78.6239 53.762C78.1385 53.9673 77.6019 54.07 77.0139 54.07C76.2579 54.07 75.5859 53.9113 74.9979 53.594C74.4192 53.2673 73.9665 52.8193 73.6399 52.25C73.3132 51.6807 73.1499 51.0367 73.1499 50.318C73.1499 49.5993 73.3039 48.9553 73.6119 48.386C73.9292 47.8167 74.3585 47.3733 74.8999 47.056C75.4505 46.7387 76.0665 46.58 76.7479 46.58C77.4292 46.58 78.0405 46.7387 78.5819 47.056C79.1232 47.3733 79.5479 47.8167 79.8559 48.386C80.1639 48.946 80.3179 49.59 80.3179 50.318L80.3039 50.626ZM76.7479 47.434C76.0385 47.434 75.4412 47.6627 74.9559 48.12C74.4799 48.568 74.2092 49.156 74.1439 49.884H79.3659C79.3005 49.156 79.0252 48.568 78.5399 48.12C78.0639 47.6627 77.4665 47.434 76.7479 47.434Z" fill="white"/>
</svg>
