<svg width="32" height="113" viewBox="0 0 32 113" fill="none" xmlns="http://www.w3.org/2000/svg">
<path d="M17.09 42.68C17.09 43.448 16.982 44.186 16.766 44.894C16.538 45.59 16.256 46.136 15.92 46.532L14.912 45.956C15.224 45.56 15.482 45.062 15.686 44.462C15.878 43.862 15.974 43.238 15.974 42.59C15.974 41.726 15.842 41.09 15.578 40.682C15.302 40.262 14.918 40.052 14.426 40.052C14.078 40.052 13.808 40.166 13.616 40.394C13.412 40.622 13.262 40.91 13.166 41.258C13.058 41.606 12.956 42.068 12.86 42.644C12.716 43.412 12.572 44.03 12.428 44.498C12.272 44.966 12.014 45.368 11.654 45.704C11.294 46.028 10.796 46.19 10.16 46.19C9.368 46.19 8.72 45.86 8.216 45.2C7.712 44.54 7.46 43.622 7.46 42.446C7.46 41.834 7.544 41.222 7.712 40.61C7.868 39.998 8.078 39.494 8.342 39.098L9.368 39.656C8.828 40.436 8.558 41.366 8.558 42.446C8.558 43.262 8.702 43.88 8.99 44.3C9.278 44.708 9.656 44.912 10.124 44.912C10.484 44.912 10.772 44.798 10.988 44.57C11.204 44.33 11.366 44.036 11.474 43.688C11.57 43.34 11.672 42.86 11.78 42.248C11.924 41.492 12.068 40.886 12.212 40.43C12.356 39.974 12.602 39.584 12.95 39.26C13.298 38.936 13.778 38.774 14.39 38.774C15.218 38.774 15.878 39.122 16.37 39.818C16.85 40.502 17.09 41.456 17.09 42.68ZM17.09 32.4874C17.09 33.4234 16.886 34.2634 16.478 35.0074C16.07 35.7394 15.5 36.3154 14.768 36.7354C14.024 37.1554 13.19 37.3654 12.266 37.3654C11.342 37.3654 10.514 37.1554 9.782 36.7354C9.05 36.3154 8.48 35.7394 8.072 35.0074C7.664 34.2634 7.46 33.4234 7.46 32.4874C7.46 31.6714 7.622 30.9454 7.946 30.3094C8.258 29.6614 8.72 29.1514 9.332 28.7794L9.98 29.7334C9.512 30.0454 9.164 30.4414 8.936 30.9214C8.696 31.4014 8.576 31.9234 8.576 32.4874C8.576 33.1714 8.732 33.7894 9.044 34.3414C9.344 34.8814 9.776 35.3074 10.34 35.6194C10.904 35.9194 11.546 36.0694 12.266 36.0694C12.998 36.0694 13.646 35.9194 14.21 35.6194C14.762 35.3074 15.194 34.8814 15.506 34.3414C15.806 33.7894 15.956 33.1714 15.956 32.4874C15.956 31.9234 15.842 31.4014 15.614 30.9214C15.386 30.4414 15.038 30.0454 14.57 29.7334L15.218 28.7794C15.83 29.1514 16.298 29.6614 16.622 30.3094C16.934 30.9574 17.09 31.6834 17.09 32.4874ZM9.386 25.0448C8.75 24.7448 8.27 24.3008 7.946 23.7128C7.622 23.1128 7.46 22.3748 7.46 21.4988L8.702 21.4988L8.684 21.8048C8.684 22.8008 8.99 23.5808 9.602 24.1448C10.214 24.7088 11.072 24.9908 12.176 24.9908L17 24.9908L17 26.2688L7.532 26.2688L7.532 25.0448L9.386 25.0448ZM17.09 15.4027C17.09 16.3147 16.886 17.1367 16.478 17.8687C16.058 18.6007 15.482 19.1767 14.75 19.5967C14.018 20.0167 13.19 20.2267 12.266 20.2267C11.342 20.2267 10.514 20.0167 9.782 19.5967C9.05 19.1767 8.48 18.6007 8.072 17.8687C7.664 17.1367 7.46 16.3147 7.46 15.4027C7.46 14.4907 7.664 13.6687 8.072 12.9367C8.48 12.2047 9.05 11.6347 9.782 11.2267C10.514 10.8067 11.342 10.5967 12.266 10.5967C13.19 10.5967 14.018 10.8067 14.75 11.2267C15.482 11.6347 16.058 12.2047 16.478 12.9367C16.886 13.6687 17.09 14.4907 17.09 15.4027ZM15.956 15.4027C15.956 14.7307 15.806 14.1307 15.506 13.6027C15.194 13.0627 14.756 12.6427 14.192 12.3427C13.628 12.0427 12.986 11.8927 12.266 11.8927C11.546 11.8927 10.904 12.0427 10.34 12.3427C9.776 12.6427 9.344 13.0627 9.044 13.6027C8.732 14.1307 8.576 14.7307 8.576 15.4027C8.576 16.0747 8.732 16.6807 9.044 17.2207C9.344 17.7487 9.776 18.1687 10.34 18.4807C10.904 18.7807 11.546 18.9307 12.266 18.9307C12.986 18.9307 13.628 18.7807 14.192 18.4807C14.756 18.1687 15.194 17.7487 15.506 17.2207C15.806 16.6807 15.956 16.0747 15.956 15.4027ZM3.64399 7.98753L3.64399 6.70953L17 6.70953L17 7.98753L3.64399 7.98753ZM3.64399 3.15355L3.64399 1.87555L17 1.87555L17 3.15355L3.64399 3.15355Z" fill="white"/>
<path d="M27.6464 112.354C27.8417 112.549 28.1583 112.549 28.3536 112.354L31.5355 109.172C31.7308 108.976 31.7308 108.66 31.5355 108.464C31.3403 108.269 31.0237 108.269 30.8284 108.464L28 111.293L25.1716 108.464C24.9763 108.269 24.6597 108.269 24.4645 108.464C24.2692 108.66 24.2692 108.976 24.4645 109.172L27.6464 112.354ZM28.5 112L28.5 -2.18557e-08L27.5 2.18557e-08L27.5 112L28.5 112Z" fill="white"/>
</svg>
